<svg width="736" height="343" viewBox="0 0 736 343" xmlns="http://www.w3.org/2000/svg"><title>Figure 3@3x</title><g fill="none" fill-rule="evenodd"><path fill="#F5F5F5" opacity=".8" d="M135 75h120v212H135z"/><path fill="#EAEDEF" d="M47 79h86v208H47zm86-45h578v45H133z"/><text font-family="Roboto-Regular, Roboto" font-size="10" fill="#212121"><tspan x="156.515" y="54">User (internet) to </tspan> <tspan x="142.079" y="66">Google Front End (GFE)</tspan></text><text font-family="Roboto-Regular, Roboto" font-size="12" fill="#212121"><tspan x="274.161" y="134">IPsec tunnel</tspan></text><path fill="#F5F5F5" opacity=".8" d="M362 79h105v104H362zM252 183h111v104H252zm339 0h121v104H591z"/><path d="M588.52 226h-225" stroke="#4387FD"/><path fill="#4387FD" d="M368.328 222l.672.716-3.556 3.283 3.556 3.285-.672.716-4.328-4zm217.344 8l-.672-.716 3.556-3.283-3.556-3.285.672-.716 4.328 4z"/><text font-family="Roboto-Regular, Roboto" font-size="9" fill="#212121"><tspan x="473.66" y="53">Outside a physical boundary </tspan> <tspan x="488.948" y="65">controlled by Google</tspan></text><text font-family="Roboto-Regular, Roboto" font-size="9" fill="#212121"><tspan x="598.998" y="53">Inside a physical boundary </tspan> <tspan x="610.948" y="65">controlled by Google</tspan></text><text font-family="Roboto-Regular, Roboto" font-size="10" fill="#212121"><tspan x="561.018" y="26">VM to VM</tspan></text><text font-family="Roboto-Regular, Roboto" font-size="10" fill="#212121"><tspan x="381.514" y="251">Google Cloud’s </tspan> <tspan x="382.236" y="262">virtual network </tspan> <tspan x="383.088" y="273">authentication</tspan></text><text font-family="Roboto-Regular, Roboto" font-size="10" fill="#212121"><tspan x="480.626" y="207">Google Cloud’s virtual </tspan> <tspan x="486.542" y="218">network encryption</tspan></text><text transform="rotate(-90 28 183.5)" font-family="Roboto-Regular, Roboto" font-size="12" fill="#212121"><tspan x="2.764" y="187.5">Layer 3/4</tspan></text><path d="M47.6 182h664" stroke="#616161" stroke-linecap="square"/><path d="M46.6 79h665" stroke="#FFF" stroke-width="2"/><path d="M254 34v255M362 34v255" stroke="#616161" stroke-dasharray="2,2"/><path d="M591.5 289.687v-255" stroke="#616161" opacity=".3" stroke-dasharray="2,2"/><path d="M466.5 289.687v-275" stroke="#616161" stroke-dasharray="2,2"/><text font-family="Roboto-Regular, Roboto" font-size="10" fill="#212121"><tspan x="271.515" y="54">User (internet) to </tspan> <tspan x="261.874" y="66">Virtual Machine (VM)</tspan></text><text font-family="Roboto-Regular, Roboto" font-size="10" fill="#212121"><tspan x="378.068" y="54">GFE to Virtual </tspan> <tspan x="377.143" y="66">Machine (VM)</tspan></text><text font-family="Roboto-Regular, Roboto" font-size="10" fill="#212121"><tspan x="79.839" y="129">User</tspan> <tspan x="61.802" y="141">Configurable</tspan></text><text font-family="Roboto-Regular, Roboto" font-size="10" fill="#212121"><tspan x="75.014" y="231">Default</tspan> <tspan x="68.029" y="243">Protection</tspan></text><path d="M358 145H257" stroke="#4387FD"/><path fill="#4387FD" d="M260.328 141l.672.716-3.556 3.283 3.556 3.285-.672.716-4.328-4zm95.344 8l-.672-.716 3.556-3.283-3.556-3.285.672-.716 4.328 4z"/><text font-family="Roboto-Regular, Roboto" font-size="12" fill="#212121"><tspan x="553.161" y="134">IPsec tunnel</tspan></text><path d="M707.512 145h-237" stroke="#4387FD"/><path fill="#4387FD" d="M473.328 141l.672.716-3.556 3.283 3.556 3.285-.672.716-4.328-4zm231.344 8l-.672-.716 3.556-3.283-3.556-3.285.672-.716 4.328 4z"/><path d="M709.512 281h-344" stroke="#B3E5FC"/><path fill="#B3E5FC" d="M368.328 277l.672.716-3.556 3.283 3.556 3.285-.672.716-4.328-4zm338.344 8l-.672-.716 3.556-3.283-3.556-3.285.672-.716 4.328 4z"/><text font-family="Roboto-Regular, Roboto" font-size="10" fill="#757575"><tspan x="68" y="308">Authentication only</tspan></text><text font-family="Roboto-Regular, Roboto" font-size="10" fill="#757575"><tspan x="198" y="308">Authentication and integrity</tspan></text><text font-family="Roboto-Regular, Roboto" font-size="10" fill="#757575"><tspan x="368" y="308">Authentication and integrity and encryption</tspan></text><path d="M47.48 305h11.175" stroke="#B3E5FC"/><path fill="#B3E5FC" d="M55.672 301l-.672.716L58.556 305 55 308.284l.672.716L60 305z"/><path d="M347.48 305h11.175" stroke="#4387FD"/><path fill="#4387FD" d="M355.672 301l-.672.716 3.556 3.283-3.556 3.285.672.716 4.328-4z"/><g><path d="M177.48 305h11.175" stroke="#44B6EA"/><path fill="#44B6EA" d="M185.672 301l-.672.716 3.556 3.283-3.556 3.285.672.716 4.328-4z"/></g></g></svg>