<svg width="736" height="373" viewBox="0 0 736 373" xmlns="http://www.w3.org/2000/svg"><title>Figure 4@3x</title><g fill="none" fill-rule="evenodd"><path fill="#E7F7FF" d="M47 258h12v12H47z"/><path fill="#EAEDEF" d="M47 79h86v208H47zm86-45h578v45H133z"/><text font-family="Roboto-Regular, Roboto" font-size="10" fill="#212121"><tspan x="79.839" y="129">User</tspan> <tspan x="61.802" y="141">Configurable</tspan></text><text font-family="Roboto-Regular, Roboto" font-size="10" fill="#212121"><tspan x="157.5" y="54">User (internet) to Google</tspan> <tspan x="177.093" y="66">Front End (GFE)</tspan></text><text font-family="Roboto-Regular, Roboto" font-size="10" fill="#212121"><tspan x="75.014" y="231">Default</tspan> <tspan x="68.029" y="243">Protection</tspan></text><text font-family="Roboto-Regular, Roboto" font-size="12" fill="#212121"><tspan x="198.048" y="248">TLS*</tspan></text><text font-family="Roboto-Regular, Roboto" font-size="12" fill="#212121"><tspan x="51.416" y="333">*</tspan></text><path fill="#F5F5F5" opacity=".8" d="M291 79h286v104H291z"/><text font-family="Roboto-Regular, Roboto" font-size="9" fill="#212121"><tspan x="306.16" y="53">Outside a physical boundary </tspan> <tspan x="321.448" y="65">controlled by Google</tspan></text><text font-family="Roboto-Regular, Roboto" font-size="10" fill="#212121"><tspan x="402.235" y="25">GFE to service</tspan></text><text font-family="Roboto-Regular, Roboto" font-size="9" fill="#212121"><tspan x="452.498" y="53">Inside a physical boundary </tspan> <tspan x="464.448" y="65">controlled by Google</tspan></text><text font-family="Roboto-Regular, Roboto" font-size="10" fill="#212121"><tspan x="588.018" y="59">VM to VM</tspan></text><text font-family="Roboto-Regular, Roboto" font-size="10" fill="#212121"><tspan x="655.053" y="59">VM to GFE</tspan></text><text font-family="Roboto-Regular, Roboto" font-size="12" fill="#212121"><tspan x="347.718" y="249">ALTS</tspan></text><text font-family="Roboto-Regular, Roboto" font-size="12" fill="#212121"><tspan x="491.718" y="249">ALTS</tspan></text><path fill="#F5F5F5" opacity=".8" d="M578 183h67v104h-67z"/><text transform="rotate(-90 20 190.5)" font-family="Roboto-Regular, Roboto" font-size="12" fill="#212121"><tspan x=".605" y="201.5">Layer 7</tspan></text><text font-family="Roboto-Regular, Roboto" font-size="12" fill="#212121"><tspan x="601.112" y="146">istio</tspan></text><text font-family="Roboto-Regular, Roboto" font-size="12" fill="#212121"><tspan x="667.548" y="248">TLS*</tspan></text><path fill="#F5F5F5" opacity=".8" d="M644 79h67v104h-67z"/><path d="M46.6 182h665" stroke="#616161" stroke-linecap="square"/><path d="M290.17 287.231v-208" stroke="#FFF" stroke-width="2"/><path d="M434.25 287.5V34.231" stroke="#616161" opacity=".3" stroke-dasharray="2,2"/><path d="M577.5 287.295v-275m67 275v-253m-355 253v-275" stroke="#616161" stroke-dasharray="2,2"/><text font-family="Roboto-Regular, Roboto" font-size="10" fill="#757575"><tspan x="68" y="308">Authentication only</tspan></text><text font-family="Roboto-Regular, Roboto" font-size="10" fill="#757575"><tspan x="68" y="329">TLS is by default for Google Cloud services. For a customer application hosted on Google Cloud, this is something that needs to be </tspan> <tspan x="68" y="344">configured by the customer.</tspan></text><text font-family="Roboto-Regular, Roboto" font-size="10" fill="#757575"><tspan x="198" y="308">Authentication and integrity</tspan></text><text font-family="Roboto-Regular, Roboto" font-size="10" fill="#757575"><tspan x="368" y="308">Authentication and integrity and encryption</tspan></text><text font-family="Roboto-Regular, Roboto" font-size="12" fill="#212121"><tspan x="174.162" y="114">Managed SSL </tspan> <tspan x="146.819" y="128">certificates, HTTPS load</tspan> <tspan x="151.255" y="142">balancer, S/MIME, etc.</tspan></text><path d="M287.52 153H134.345" stroke="#4387FD"/><path fill="#4387FD" d="M137.328 149l.672.716-3.556 3.283 3.556 3.285-.672.716-4.328-4zm146.344 8l-.672-.716 3.556-3.283-3.556-3.285.672-.716 4.328 4z"/><path d="M641.52 153h-61" stroke="#4387FD"/><path fill="#4387FD" d="M583.328 149l.672.716-3.556 3.283 3.556 3.285-.672.716-4.328-4zm55.344 8l-.672-.716 3.556-3.283-3.556-3.285.672-.716 4.328 4z"/><path d="M709.52 255h-61" stroke="#4387FD"/><path fill="#4387FD" d="M651.328 251l.672.716-3.556 3.283 3.556 3.285-.672.716-4.328-4zm55.344 8l-.672-.716 3.556-3.283-3.556-3.285.672-.716 4.328 4z"/><path d="M287.52 257H134.345" stroke="#4387FD"/><path fill="#4387FD" d="M137.328 253l.672.716-3.556 3.283 3.556 3.285-.672.716-4.328-4zm146.344 8l-.672-.716 3.556-3.283-3.556-3.285.672-.716 4.328 4z"/><path d="M431.52 257h-139" stroke="#4387FD"/><path fill="#4387FD" d="M295.328 253l.672.716-3.556 3.283 3.556 3.285-.672.716-4.328-4zm133.344 8l-.672-.716 3.556-3.283-3.556-3.285.672-.716 4.328 4z"/><path d="M575.52 257h-139" stroke="#44B6EA"/><path fill="#44B6EA" d="M439.328 253l.672.716-3.556 3.283 3.556 3.285-.672.716-4.328-4zm132.344 8l-.672-.716 3.556-3.283-3.556-3.285.672-.716 4.328 4z"/><g><path d="M47.48 305h11.175" stroke="#B3E5FC"/><path fill="#B3E5FC" d="M55.672 301l-.672.716L58.556 305 55 308.284l.672.716L60 305z"/></g><g><path d="M347.48 305h11.175" stroke="#4387FD"/><path fill="#4387FD" d="M355.672 301l-.672.716 3.556 3.283-3.556 3.285.672.716 4.328-4z"/></g><g><path d="M177.48 305h11.175" stroke="#44B6EA"/><path fill="#44B6EA" d="M185.672 301l-.672.716 3.556 3.283-3.556 3.285.672.716 4.328-4z"/></g></g></svg>