<svg width="736" height="1008" viewBox="0 0 736 1008" xmlns="http://www.w3.org/2000/svg" xmlns:xlink="http://www.w3.org/1999/xlink"><title>Figure 5@3x</title><defs><path id="a" d="M0 0h105v55H0z"/><path id="b" d="M0 0h105v55H0z"/><path id="c" d="M0 0h133v92H0z"/><linearGradient x1="50%" y1="0%" x2="50%" y2="99.845%" id="d"><stop stop-color="#4387FD" offset="0%"/><stop stop-color="#4683EA" offset="100%"/></linearGradient><path id="e" d="M0 0h133v92H0z"/><path id="f" d="M0 0h133v92H0z"/><path id="g" d="M0 0h73v55H0z"/><path id="h" d="M0 0h112v55H0z"/><path id="i" d="M0 0h112v55H0z"/></defs><g fill="none" fill-rule="evenodd"><path fill="#EDE7F6" d="M79 746h574v61H79zm0-468h574v61H79z"/><path fill="#FEF6E0" d="M77 355h577v375H77z"/><text font-family="Roboto-Regular, Roboto" font-size="10" letter-spacing="-.106" fill="#757575"><tspan x="95" y="377">Physical</tspan> <tspan x="95" y="388">boundary</tspan> <tspan x="95" y="399">controlled</tspan> <tspan x="95" y="410">by Google</tspan></text><path fill="#FEF6E0" d="M77 96h577v166H77z"/><text font-family="Roboto-Regular, Roboto" font-size="10" letter-spacing="-.106" fill="#757575"><tspan x="95" y="118">Physical</tspan> <tspan x="95" y="129">boundary</tspan> <tspan x="95" y="140">controlled</tspan> <tspan x="95" y="151">by Google</tspan></text><text font-family="Roboto-Regular, Roboto" font-size="10" letter-spacing="-.106" fill="#757575"><tspan x="480.586" y="550">Google Cloud’s </tspan> <tspan x="480.819" y="561">virtual network </tspan> <tspan x="482.661" y="572">authentication</tspan></text><text font-family="Roboto-Regular, Roboto" font-size="10" letter-spacing="-.106" fill="#757575"><tspan x="324" y="625">Google Cloud’s </tspan> <tspan x="324" y="636">virtual network </tspan> <tspan x="324" y="647">authentication</tspan></text><text font-family="Roboto-Regular, Roboto" font-size="10" letter-spacing="-.106" fill="#757575"><tspan x="589" y="549">e.g., istio</tspan></text><text font-family="Roboto-Regular, Roboto" font-size="10" letter-spacing="-.106" fill="#757575"><tspan x="580" y="769">Google Cloud’s </tspan> <tspan x="580" y="780">virtual network </tspan> <tspan x="580" y="791">encryption</tspan></text><text font-family="Roboto-Regular, Roboto" font-size="10" letter-spacing="-.106" fill="#757575"><tspan x="243" y="677">Google Cloud’s </tspan> <tspan x="243" y="688">virtual network </tspan> <tspan x="243" y="699">encryption</tspan></text><path d="M580 499.48v96.175" stroke="#616161" stroke-linecap="square"/><path fill="#616161" d="M576 592.672l.716-.672 3.283 3.556 3.285-3.556.716.672-4 4.328z"/><path d="M559 499.48v96.175" stroke="#F4B400"/><path fill="#F4B400" d="M555 592.672l.716-.672 3.283 3.556 3.285-3.556.716.672-4 4.328zM497.172 659.5l-.672-.716 3.556-3.283-3.556-3.285.672-.716 4.328 4z"/><path fill="#FEF6E0" d="M77 822h577v130H77z"/><g transform="translate(356 843)"><use fill="#FFF" xlink:href="#a"/><path stroke="#DFDFDF" d="M.5.5h104v54H.5z"/></g><text font-family="Roboto-Regular, Roboto" font-size="12" fill="#212121" transform="translate(356 843)"><tspan x="16.608" y="26">Google Cloud </tspan> <tspan x="33.05" y="40">Service</tspan></text><g transform="translate(355 407)"><use fill="#FFF" xlink:href="#b"/><path stroke="#DFDFDF" d="M.5.5h104v54H.5z"/></g><text font-family="Roboto-Regular, Roboto" font-size="12" fill="#212121" transform="translate(355 407)"><tspan x="16.608" y="26">Google Cloud </tspan> <tspan x="33.05" y="40">Service</tspan></text><text font-family="Roboto-Regular, Roboto" font-size="10" letter-spacing="-.106" fill="#757575"><tspan x="96" y="844">Physical</tspan> <tspan x="96" y="855">boundary</tspan> <tspan x="96" y="866">controlled</tspan> <tspan x="96" y="877">by Google</tspan></text><text font-family="Roboto-Regular, Roboto" font-size="10" letter-spacing="-.106" fill="#757575"><tspan x="96" y="767">Wide Area</tspan> <tspan x="96" y="778">Network</tspan> <tspan x="96" y="789">(WAN)</tspan></text><text font-family="Roboto-Regular, Roboto" font-size="10" letter-spacing="-.106" fill="#757575"><tspan x="96" y="299">Wide Area</tspan> <tspan x="96" y="310">Network</tspan> <tspan x="96" y="321">(WAN)</tspan></text><text font-family="Roboto-Regular, Roboto" font-size="10" letter-spacing="-.106" fill="#757575"><tspan x="178" y="168">Cloud Load Balancing</tspan></text><text font-family="Roboto-Regular, Roboto" font-size="10" fill="#757575"><tspan x="483" y="32">e.g., TLS</tspan></text><text font-family="Roboto-Regular, Roboto" font-size="10" fill="#757575"><tspan x="194.72" y="63">TLS</tspan></text><path fill="#616161" d="M573 401.672l-.716-.672-3.283 3.556-3.285-3.556-.716.672 4 4.328z"/><path stroke="#616161" stroke-linecap="square" d="M413.453 37.418h155.561v366.685"/><path stroke="#0F9D58" stroke-linecap="square" d="M366.964 37H226v108.102"/><path fill="#0F9D58" d="M229.5 142.172l-.716-.672-3.283 3.556-3.285-3.556-.716.672 4 4.328zm18 0l-.716-.672-3.283 3.556-3.285-3.556-.716.672 4 4.328z"/><path d="M234.07 60.243a8 8 0 1 1-16.001-.001 8 8 0 0 1 16 0z" stroke="#616161" stroke-width="1.091" fill="#FFF"/><text font-family="Roboto-Medium, Roboto" font-size="10" font-weight="400" fill="#616161" transform="translate(218 52)"><tspan x="5" y="12">A</tspan></text><path d="M566.07 546.243a8 8 0 1 1-16.001-.001 8 8 0 0 1 16 0z" stroke="#616161" stroke-width="1.091" fill="#FFF"/><text font-family="Roboto-Medium, Roboto" font-size="10" font-weight="400" fill="#616161" transform="translate(550 538)"><tspan x="5" y="12">C</tspan></text><g transform="translate(503 599)"><use fill="#FFF" xlink:href="#c"/><path stroke="#DFDFDF" d="M.5.5h132v91H.5z"/></g><text font-family="Roboto-Regular, Roboto" font-size="12" fill="#212121" transform="translate(503 599)"><tspan x="26.331" y="26">Virtual Machine</tspan></text><text font-family="Roboto-Regular, Roboto" font-size="10" fill="#757575" transform="translate(503 599)"><tspan x="45" y="61">Compute Engine</tspan></text><text font-family="Roboto-Regular, Roboto" font-size="10" fill="#757575" transform="translate(503 599)"><tspan x="28" y="78">e.g., n1-standard-1</tspan></text><path d="M519 639h101" stroke="#DFDFDF" stroke-linecap="square"/><path d="M4.52 16.792L.398 9.737a1.767 1.767 0 0 1 0-1.784L4.519.897A1.809 1.809 0 0 1 6.083.005h8.241c.645 0 1.241.34 1.563.892l4.121 7.056a1.767 1.767 0 0 1 0 1.784l-4.12 7.055a1.809 1.809 0 0 1-1.564.892H6.083a1.81 1.81 0 0 1-1.564-.892z" fill="url(#d)" transform="translate(520 647)"/><path d="M538.872 658.81l-6.842-6.762-.487 1.043-1.06-1.048-.49 1.038-1.048-1.035-.257 1.255-.932.158-.194.82-1.206.284 1.08 1.068-1.068.471 1.069 1.057-1.076.454 7.328 7.244 1.8-.006z" fill="#000" opacity=".07"/><g fill="#FFF"><path d="M531.119 654.773h-1.791a.19.19 0 0 0-.19.189v1.77a.19.19 0 0 0 .19.188h1.79a.19.19 0 0 0 .191-.188v-1.77a.19.19 0 0 0-.19-.189"/><path d="M533.954 654.63a.17.17 0 0 0 .17-.168v-.276a.17.17 0 0 0-.17-.17h-.872v-.804a.19.19 0 0 0-.19-.188h-.818v-.865a.17.17 0 0 0-.17-.169h-.28a.17.17 0 0 0-.17.17v.864h-.92v-.865a.17.17 0 0 0-.171-.169h-.28a.17.17 0 0 0-.17.17v.864h-.92v-.865a.17.17 0 0 0-.17-.169h-.28a.17.17 0 0 0-.171.17v.864h-.817a.19.19 0 0 0-.19.188v.805h-.872a.17.17 0 0 0-.17.169v.276a.17.17 0 0 0 .17.169h.871v.91l-.871-.001a.17.17 0 0 0-.17.169v.276a.17.17 0 0 0 .17.169h.871v.909h-.871a.17.17 0 0 0-.17.169v.276a.17.17 0 0 0 .17.169h.871v.805a.19.19 0 0 0 .19.188h.818v.864c0 .093.077.17.171.17h.279a.17.17 0 0 0 .17-.17l.001-.864h.92v.864c0 .093.077.17.17.17h.28a.17.17 0 0 0 .17-.17v-.864h.92v.864c0 .093.078.17.172.17h.278a.17.17 0 0 0 .171-.17v-.864h.818a.19.19 0 0 0 .19-.188v-.805h.871a.17.17 0 0 0 .172-.17v-.275a.17.17 0 0 0-.172-.169h-.87v-.91h.87a.17.17 0 0 0 .172-.168v-.276a.17.17 0 0 0-.171-.169h-.872v-.91h.872zm-1.515 3.408h-4.432v-4.382h4.433v4.382z"/></g><g transform="translate(503 842)"><use fill="#FFF" xlink:href="#e"/><path stroke="#DFDFDF" d="M.5.5h132v91H.5z"/></g><text font-family="Roboto-Regular, Roboto" font-size="12" fill="#212121" transform="translate(503 842)"><tspan x="26.331" y="26">Virtual Machine</tspan></text><text font-family="Roboto-Regular, Roboto" font-size="10" fill="#757575" transform="translate(503 842)"><tspan x="45" y="61">Compute Engine</tspan></text><text font-family="Roboto-Regular, Roboto" font-size="10" fill="#757575" transform="translate(503 842)"><tspan x="28" y="78">e.g., n1-standard-1</tspan></text><path d="M519 882h101" stroke="#DFDFDF" stroke-linecap="square"/><path d="M4.52 16.792L.398 9.737a1.767 1.767 0 0 1 0-1.784L4.519.897A1.809 1.809 0 0 1 6.083.005h8.241c.645 0 1.241.34 1.563.892l4.121 7.056a1.767 1.767 0 0 1 0 1.784l-4.12 7.055a1.809 1.809 0 0 1-1.564.892H6.083a1.81 1.81 0 0 1-1.564-.892z" fill="url(#d)" transform="translate(520 890)"/><path d="M538.872 901.81l-6.842-6.762-.487 1.043-1.06-1.048-.49 1.038-1.048-1.035-.257 1.255-.932.158-.194.82-1.206.284 1.08 1.068-1.068.471 1.069 1.057-1.076.454 7.328 7.244 1.8-.006z" fill="#000" opacity=".07"/><g fill="#FFF"><path d="M531.119 897.773h-1.791a.19.19 0 0 0-.19.189v1.77a.19.19 0 0 0 .19.188h1.79a.19.19 0 0 0 .191-.188v-1.77a.19.19 0 0 0-.19-.189"/><path d="M533.954 897.63a.17.17 0 0 0 .17-.168v-.276a.17.17 0 0 0-.17-.17h-.872v-.804a.19.19 0 0 0-.19-.188h-.818v-.865a.17.17 0 0 0-.17-.169h-.28a.17.17 0 0 0-.17.17v.864h-.92v-.865a.17.17 0 0 0-.171-.169h-.28a.17.17 0 0 0-.17.17v.864h-.92v-.865a.17.17 0 0 0-.17-.169h-.28a.17.17 0 0 0-.171.17v.864h-.817a.19.19 0 0 0-.19.188v.805h-.872a.17.17 0 0 0-.17.169v.276a.17.17 0 0 0 .17.169h.871v.91l-.871-.001a.17.17 0 0 0-.17.169v.276a.17.17 0 0 0 .17.169h.871v.909h-.871a.17.17 0 0 0-.17.169v.276a.17.17 0 0 0 .17.169h.871v.805a.19.19 0 0 0 .19.188h.818v.864c0 .093.077.17.171.17h.279a.17.17 0 0 0 .17-.17l.001-.864h.92v.864c0 .093.077.17.17.17h.28a.17.17 0 0 0 .17-.17v-.864h.92v.864c0 .093.078.17.172.17h.278a.17.17 0 0 0 .171-.17v-.864h.818a.19.19 0 0 0 .19-.188v-.805h.871a.17.17 0 0 0 .172-.17v-.275a.17.17 0 0 0-.172-.169h-.87v-.91h.87a.17.17 0 0 0 .172-.168v-.276a.17.17 0 0 0-.171-.169h-.872v-.91h.872zm-1.515 3.408h-4.432v-4.382h4.433v4.382z"/></g><path d="M570 690.48v149.175" stroke="#F4B400"/><path fill="#F4B400" d="M566 836.672l.716-.672 3.283 3.556 3.285-3.556.716.672-4 4.328zm-16 0l.716-.672 3.283 3.556 3.285-3.556.716.672-4 4.328z"/><path d="M407 839.384V464.345" stroke="#0F9D58" stroke-linecap="square"/><path fill="#0F9D58" d="M411 467.328l-.716.672-3.283-3.556-3.285 3.556-.716-.672 4-4.328zm0 369.344l-.716-.672-3.283 3.556-3.285-3.556-.716.672 4 4.328z"/><text font-family="Roboto-Regular, Roboto" font-size="10" fill="#757575"><tspan x="419" y="551">ALTS</tspan></text><text font-family="Roboto-Regular, Roboto" font-size="10" fill="#757575"><tspan x="317" y="422">ALTS</tspan></text><path d="M289.5 429.5h62" stroke="#0F9D58" stroke-linecap="square"/><path fill="#0F9D58" d="M348.672 425l-.672.716 3.556 3.283-3.556 3.285.672.716 4.328-4z"/><path d="M235 234.919v167.736" stroke="#0F9D58" stroke-linecap="square"/><path fill="#0F9D58" d="M231 400.672l.716-.672 3.283 3.556 3.285-3.556.716.672-4 4.328zm171.389 1l.716-.672 3.283 3.556 3.284-3.556.717.672-4.001 4.328z"/><g transform="translate(503 408)"><use fill="#FFF" xlink:href="#f"/><path stroke="#DFDFDF" d="M.5.5h132v91H.5z"/></g><text font-family="Roboto-Regular, Roboto" font-size="12" fill="#212121" transform="translate(503 408)"><tspan x="26.331" y="26">Virtual Machine </tspan> <tspan x="32.29" y="40">with public IP</tspan></text><text font-family="Roboto-Regular, Roboto" font-size="10" fill="#757575" transform="translate(503 408)"><tspan x="45" y="75">Compute Engine</tspan></text><path d="M519 462h101" stroke="#DFDFDF" stroke-linecap="square"/><path d="M4.52 16.792L.398 9.737a1.767 1.767 0 0 1 0-1.784L4.519.897A1.809 1.809 0 0 1 6.083.005h8.241c.645 0 1.241.34 1.563.892l4.121 7.056a1.767 1.767 0 0 1 0 1.784l-4.12 7.055a1.809 1.809 0 0 1-1.564.892H6.083a1.81 1.81 0 0 1-1.564-.892z" fill="url(#d)" transform="translate(520 470)"/><path d="M538.872 481.81l-6.842-6.762-.487 1.043-1.06-1.048-.49 1.038-1.048-1.035-.257 1.255-.932.158-.194.82-1.206.284 1.08 1.068-1.068.471 1.069 1.057-1.076.454 7.328 7.244 1.8-.006z" fill="#000" opacity=".07"/><g fill="#FFF"><path d="M531.119 477.773h-1.791a.19.19 0 0 0-.19.189v1.77a.19.19 0 0 0 .19.188h1.79a.19.19 0 0 0 .191-.188v-1.77a.19.19 0 0 0-.19-.189"/><path d="M533.954 477.63a.17.17 0 0 0 .17-.168v-.276a.17.17 0 0 0-.17-.17h-.872v-.804a.19.19 0 0 0-.19-.188h-.818v-.865a.17.17 0 0 0-.17-.169h-.28a.17.17 0 0 0-.17.17v.864h-.92v-.865a.17.17 0 0 0-.171-.169h-.28a.17.17 0 0 0-.17.17v.864h-.92v-.865a.17.17 0 0 0-.17-.169h-.28a.17.17 0 0 0-.171.17v.864h-.817a.19.19 0 0 0-.19.188v.805h-.872a.17.17 0 0 0-.17.169v.276a.17.17 0 0 0 .17.169h.871v.91l-.871-.001a.17.17 0 0 0-.17.169v.276a.17.17 0 0 0 .17.169h.871v.909h-.871a.17.17 0 0 0-.17.169v.276a.17.17 0 0 0 .17.169h.871v.805a.19.19 0 0 0 .19.188h.818v.864c0 .093.077.17.171.17h.279a.17.17 0 0 0 .17-.17l.001-.864h.92v.864c0 .093.077.17.17.17h.28a.17.17 0 0 0 .17-.17v-.864h.92v.864c0 .093.078.17.172.17h.278a.17.17 0 0 0 .171-.17v-.864h.818a.19.19 0 0 0 .19-.188v-.805h.871a.17.17 0 0 0 .172-.17v-.275a.17.17 0 0 0-.172-.169h-.87v-.91h.87a.17.17 0 0 0 .172-.168v-.276a.17.17 0 0 0-.171-.169h-.872v-.91h.872zm-1.515 3.408h-4.432v-4.382h4.433v4.382z"/></g><path stroke="#616161" stroke-width="1.018" stroke-dasharray="2.317" d="M161 147h144v331H161z"/><path d="M415.07 547.243a8 8 0 1 1-16.001-.001 8 8 0 0 1 16 0z" stroke="#616161" stroke-width="1.091" fill="#FFF"/><text font-family="Roboto-Medium, Roboto" font-size="10" font-weight="400" fill="#616161" transform="translate(399 539)"><tspan x="5" y="12">E</tspan></text><path stroke="#F4B400" d="M290 439h24.58v217H500"/><path stroke="#0F9D58" stroke-linecap="square" d="M585.954 690.038V709H671V82H243v63.446"/><text font-family="Roboto-Regular, Roboto" font-size="10" fill="#757575"><tspan x="459.72" y="68">TLS</tspan></text><path d="M477.07 81.243a8 8 0 1 1-16.001-.001 8 8 0 0 1 16 0z" stroke="#616161" stroke-width="1.091" fill="#FFF"/><text font-family="Roboto-Medium, Roboto" font-size="10" font-weight="400" fill="#616161" transform="translate(461 73)"><tspan x="5" y="12">D</tspan></text><path d="M576.07 60.243a8 8 0 1 1-16.001-.001 8 8 0 0 1 16 0z" stroke="#616161" stroke-width="1.091" fill="#FFF"/><text font-family="Roboto-Medium, Roboto" font-size="10" font-weight="400" fill="#616161" transform="translate(560 52)"><tspan x="5" y="12">B</tspan></text><g transform="translate(371 9)"><use fill="#FFF" xlink:href="#g"/><path stroke="#DFDFDF" d="M.5.5h72v54H.5z"/></g><text font-family="Roboto-Regular, Roboto" font-size="12" fill="#212121" transform="translate(371 9)"><tspan x="34" y="31">User</tspan></text><path d="M393.273 33.714c1.358 0 2.446-1.053 2.446-2.357 0-1.304-1.088-2.357-2.446-2.357s-2.455 1.053-2.455 2.357c0 1.304 1.097 2.357 2.455 2.357zm-6.546 0c1.358 0 2.447-1.053 2.447-2.357 0-1.304-1.089-2.357-2.447-2.357s-2.454 1.053-2.454 2.357c0 1.304 1.096 2.357 2.454 2.357zm0 1.572c-1.906 0-5.727.919-5.727 2.75V40h11.455v-1.964c0-1.831-3.821-2.75-5.728-2.75zm6.546 0c-.238 0-.508.015-.794.039.95.66 1.612 1.548 1.612 2.71V40H399v-1.964c0-1.831-3.82-2.75-5.727-2.75z" fill="#616161"/><path d="M79.98 962.5h11.175" stroke="#616161" stroke-linecap="square"/><path fill="#616161" d="M88.172 958.5l-.672.716 3.556 3.283-3.556 3.285.672.716 4.328-4z"/><g><path d="M424.98 962.5h11.175" stroke="#F4B400"/><path fill="#F4B400" d="M433.172 958.5l-.672.716 3.556 3.283-3.556 3.285.672.716 4.328-4z"/></g><text font-family="Roboto-Regular, Roboto" font-size="10" fill="#757575"><tspan x="78" y="980">Additional User Configurable Protection</tspan></text><text font-family="Roboto-Regular, Roboto" font-size="10" fill="#757575"><tspan x="424" y="980">Layer 3/4 Default Protection</tspan></text><g><path d="M278.98 962.5h11.175" stroke="#0F9D58" stroke-linecap="square"/><path fill="#0F9D58" d="M287.172 958.5l-.672.716 3.556 3.283-3.556 3.285.672.716 4.328-4z"/></g><text font-family="Roboto-Regular, Roboto" font-size="10" fill="#757575"><tspan x="278" y="980">Layer 7 Default Protection</tspan></text><path stroke="#F4B400" d="M234 462v245.41h319V839"/><path stroke="#0F9D58" stroke-linecap="square" d="M307 202h100v202"/><text font-family="Roboto-Regular, Roboto" font-size="10" fill="#757575"><tspan x="343" y="189">ALTS</tspan></text><text font-family="Roboto-Regular, Roboto" font-size="10" fill="#757575"><tspan x="242" y="314">ALTS</tspan></text><g><g transform="translate(178 180)"><use fill="#FFF" xlink:href="#h"/><path stroke="#DFDFDF" d="M.5.5h111v54H.5z"/></g><text font-family="Roboto-Regular, Roboto" font-size="12" fill="#212121" transform="translate(178 180)"><tspan x="44" y="25">Google</tspan> <tspan x="44" y="39">Front End</tspan></text></g><g><g transform="translate(178 407)"><use fill="#FFF" xlink:href="#i"/><path stroke="#DFDFDF" d="M.5.5h111v54H.5z"/></g><text font-family="Roboto-Regular, Roboto" font-size="12" fill="#212121" transform="translate(178 407)"><tspan x="44" y="25">Google</tspan> <tspan x="44" y="39">Front End</tspan></text></g><path d="M200 207.996l-3.5-4.005H193l3.5 4.005L193 212h3.5l3.5-4.004zm-9-8c0-1.103.893-1.996 1.995-1.996h14.01c1.102 0 1.995.893 1.995 1.995v14.01a1.995 1.995 0 0 1-1.995 1.995h-14.01a1.995 1.995 0 0 1-1.995-1.995v-14.01zm10.01 9.983v1.984L206 212l.054-2.021h-5.045zM200 434.996l-3.5-4.005H193l3.5 4.005L193 439h3.5l3.5-4.004zm-9-8c0-1.103.893-1.996 1.995-1.996h14.01c1.102 0 1.995.893 1.995 1.995v14.01a1.995 1.995 0 0 1-1.995 1.995h-14.01a1.995 1.995 0 0 1-1.995-1.995v-14.01zm10.01 9.983v1.984L206 439l.054-2.021h-5.045z" fill="#616161"/></g></svg>